<?xml version="1.0" encoding="utf-8"?>
<!-- Svg Vector Icons : http://www.onlinewebfonts.com/icon -->
<!DOCTYPE svg PUBLIC "-//W3C//DTD SVG 1.1//EN" "http://www.w3.org/Graphics/SVG/1.1/DTD/svg11.dtd">
<svg version="1.1" xmlns="http://www.w3.org/2000/svg" xmlns:xlink="http://www.w3.org/1999/xlink" x="0px" y="0px" viewBox="0 0 256 256" enable-background="new 0 0 256 256" xml:space="preserve">
<metadata> Svg Vector Icons : http://www.onlinewebfonts.com/icon </metadata>
<g><g><path fill="#000000" d="M128,201.3c29.8-32.3,68.3-84.5,68.3-110.6c0-37.3-31-68.3-68.3-68.3c-37.3-1.3-68.3,29.8-68.3,68.3C59.7,116.8,98.2,169,128,201.3 M128,219.9c0,0-80.7-84.5-80.7-129.2C47.3,46,83.3,10,128,10c44.7,0,80.7,36,80.7,80.7C208.7,135.4,128,219.9,128,219.9L128,219.9L128,219.9z"/><path fill="#000000" d="M128,118.1c14.9,0,27.3-12.4,27.3-27.3c0-14.9-12.4-27.3-27.3-27.3c-14.9,0-27.3,12.4-27.3,27.3C100.7,105.7,113.1,118.1,128,118.1 M128,130.5c-22.3,0-39.8-17.4-39.8-39.8C88.2,68.4,105.6,51,128,51c22.3,0,39.8,17.4,39.8,39.8S150.3,130.5,128,130.5L128,130.5L128,130.5z"/><path fill="#000000" d="M160.3,193.8v12.4c19.9,3.7,32.3,8.7,36,12.4c-5,5-27.3,14.9-68.3,14.9c-39.8,0-63.4-9.9-68.3-14.9c3.7-3.7,16.2-9.9,38.5-12.4v-12.4c-29.8,3.7-50.9,13.7-50.9,24.9c0,14.9,36,27.3,80.7,27.3c44.7,0,80.7-12.4,80.7-27.3C208.7,207.5,188.9,197.5,160.3,193.8z"/></g></g>
</svg>